<svg width="24" height="24" viewBox="0 0 24 24" fill="none" xmlns="http://www.w3.org/2000/svg">
<path d="M17.1875 4.5C17.9792 4.5 18.6458 4.77083 19.1875 5.3125C19.7292 5.85417 20 6.52083 20 7.3125V16.6875C20 16.9167 19.9167 17.1146 19.75 17.2812C19.6042 17.4271 19.4167 17.5 19.1875 17.5C18.9583 17.5 18.7708 17.4271 18.625 17.2812C18.4792 17.1146 18.4062 16.9167 18.4062 16.6875V7.3125C18.4062 6.95833 18.2917 6.66667 18.0625 6.4375C17.8333 6.20833 17.5417 6.09375 17.1875 6.09375H7.8125C7.58333 6.09375 7.38542 6.02083 7.21875 5.875C7.07292 5.72917 7 5.54167 7 5.3125C7 5.08333 7.07292 4.89583 7.21875 4.75C7.38542 4.58333 7.58333 4.5 7.8125 4.5H17.1875ZM14.1875 7.5C14.9792 7.5 15.6458 7.77083 16.1875 8.3125C16.7292 8.85417 17 9.52083 17 10.3125V17.6875C17 18.4792 16.7292 19.1458 16.1875 19.6875C15.6458 20.2292 14.9792 20.5 14.1875 20.5H6.21875C5.61458 20.5 5.09375 20.2812 4.65625 19.8438C4.21875 19.4062 4 18.8854 4 18.2812V10.3125C4 9.52083 4.27083 8.85417 4.8125 8.3125C5.35417 7.77083 6.02083 7.5 6.8125 7.5H14.1875ZM15.4062 10.3125C15.4062 9.95833 15.2917 9.66667 15.0625 9.4375C14.8333 9.20833 14.5417 9.09375 14.1875 9.09375H6.8125C6.45833 9.09375 6.16667 9.20833 5.9375 9.4375C5.70833 9.66667 5.59375 9.95833 5.59375 10.3125V18.2812C5.59375 18.4479 5.65625 18.5938 5.78125 18.7188C5.90625 18.8438 6.05208 18.9062 6.21875 18.9062H14.1875C14.5417 18.9062 14.8333 18.7917 15.0625 18.5625C15.2917 18.3333 15.4062 18.0417 15.4062 17.6875V10.3125ZM10.5 13.5C10.0833 13.5 9.72917 13.3542 9.4375 13.0625C9.14583 12.7708 9 12.4167 9 12C9 11.5833 9.14583 11.2292 9.4375 10.9375C9.72917 10.6458 10.0833 10.5 10.5 10.5C10.9167 10.5 11.2708 10.6458 11.5625 10.9375C11.8542 11.2292 12 11.5833 12 12C12 12.4167 11.8542 12.7708 11.5625 13.0625C11.2708 13.3542 10.9167 13.5 10.5 13.5ZM11.8125 14.5C12.4167 14.5 12.9271 14.7083 13.3438 15.125C13.7812 15.5417 14 16.0104 14 16.5312C14 16.8229 13.9167 17.0625 13.75 17.25C13.6042 17.4167 13.4167 17.5 13.1875 17.5H7.8125C7.54167 17.5 7.33333 17.4167 7.1875 17.25C7.0625 17.0625 7 16.8229 7 16.5312C7 16.0104 7.20833 15.5417 7.625 15.125C8.0625 14.7083 8.58333 14.5 9.1875 14.5H11.8125Z" fill="#0070F2"/>
</svg>
