<svg width="22" height="22" viewBox="0 0 22 22" fill="none" xmlns="http://www.w3.org/2000/svg">
<path d="M17.2812 21.5H4.71875C3.53125 21.5 2.53125 21.0938 1.71875 20.2812C0.90625 19.4688 0.5 18.4688 0.5 17.2812V4.71875C0.5 3.53125 0.90625 2.53125 1.71875 1.71875C2.53125 0.90625 3.53125 0.5 4.71875 0.5H17.2812C18.4688 0.5 19.4688 0.90625 20.2812 1.71875C21.0938 2.53125 21.5 3.53125 21.5 4.71875V17.2812C21.5 18.4688 21.0938 19.4688 20.2812 20.2812C19.4688 21.0938 18.4688 21.5 17.2812 21.5ZM4.71875 2.89062C4.1875 2.89062 3.75 3.0625 3.40625 3.40625C3.0625 3.75 2.89062 4.1875 2.89062 4.71875V17.2812C2.89062 17.8125 3.0625 18.25 3.40625 18.5938C3.75 18.9375 4.1875 19.1094 4.71875 19.1094H17.2812C17.8125 19.1094 18.25 18.9375 18.5938 18.5938C18.9375 18.25 19.1094 17.8125 19.1094 17.2812V4.71875C19.1094 4.1875 18.9375 3.75 18.5938 3.40625C18.25 3.0625 17.8125 2.89062 17.2812 2.89062H4.71875ZM14.2812 15.5H7.71875C7.375 15.5 7.07812 15.3906 6.82812 15.1719C6.60938 14.9219 6.5 14.625 6.5 14.2812C6.5 13.9375 6.60938 13.6562 6.82812 13.4375C7.07812 13.2188 7.375 13.1094 7.71875 13.1094H14.2812C14.625 13.1094 14.9062 13.2188 15.125 13.4375C15.375 13.6562 15.5 13.9375 15.5 14.2812C15.5 14.625 15.375 14.9219 15.125 15.1719C14.9062 15.3906 14.625 15.5 14.2812 15.5Z" fill="#256F3A"/>
</svg>
